Coordinates
version=1
nRows=11
nColumns=63
inDegrees=yes

Units are S.I. units (second, meters, Newtons, ...)
If the header above contains a line with 'inDegrees', this indicates whether rotational values are in degrees (yes) or radians (no).

endheader
time	pelvis_tilt	pelvis_list	pelvis_rotation	pelvis_tx	pelvis_ty	pelvis_tz	hip_flexion_r	hip_adduction_r	hip_rotation_r	knee_angle_r	knee_angle_r_beta	ankle_angle_r	subtalar_angle_r	mtp_angle_r	hip_flexion_l	hip_adduction_l	hip_rotation_l	knee_angle_l	knee_angle_l_beta	ankle_angle_l	subtalar_angle_l	mtp_angle_l	L5_S1_Flex_Ext	L5_S1_Lat_Bending	L5_S1_axial_rotation	L4_L5_Flex_Ext	L4_L5_Lat_Bending	L4_L5_axial_rotation	L3_L4_Flex_Ext	L3_L4_Lat_Bending	L3_L4_axial_rotation	L2_L3_Flex_Ext	L2_L3_Lat_Bending	L2_L3_axial_rotation	L1_L2_Flex_Ext	L1_L2_Lat_Bending	L1_L2_axial_rotation	L1_T12_Flex_Ext	L1_T12_Lat_Bending	L1_T12_axial_rotation	Abs_r3	Abs_r2	Abs_r1	Abs_t1	Abs_t2	neck_flexion	neck_bending	neck_rotation	arm_flex_r	arm_add_r	arm_rot_r	elbow_flex_r	pro_sup_r	wrist_flex_r	wrist_dev_r	arm_flex_l	arm_add_l	arm_rot_l	elbow_flex_l	pro_sup_l	wrist_flex_l	wrist_dev_l
      5.33333333	      7.79702288	     -1.04370149	     92.77514721	      0.14842243	      0.89812363	      0.41086099	      2.69995481	      1.44506229	    -23.46565328	     19.16860254	      0.33455523	     30.42737997	     18.92010552	      0.00000000	      3.31195739	     -6.53308434	     -8.17830713	     18.30615860	      0.31950274	     30.76138400	      7.25380725	      0.00000000	     -0.17220783	      0.99076090	      1.23440625	     -0.31980715	      1.31771200	      1.31155664	     -0.28292024	      2.40893606	      1.31155664	     -0.19681632	      2.40893606	      1.08010547	     -0.15991219	      2.02035964	      1.00295508	     -0.09839955	      1.53468864	      0.92580469	     -1.23006328	     11.20768550	      6.86539723	      0.00000000	      0.00000000	      4.65690023	     -0.11178918	     11.75321796	      5.01234975	    -14.44183362	     40.11219740	     26.81866429	     78.78261783	    -10.35526598	      4.73804552	     58.03836590	     -4.50471090	     13.73584562	    141.14864056	     87.93550016	    -10.28880466	     11.37325618
      5.35000000	      7.88921649	     -1.01998013	     92.94314201	      0.14796753	      0.89809799	      0.41087285	      2.59186837	      1.52362747	    -23.78469686	     19.02623088	      0.33207037	     30.32732540	     18.94842700	      0.00000000	      3.29094450	     -6.50467496	     -7.33924377	     18.21754610	      0.31795616	     30.49478461	      6.41193265	      0.00000000	     -0.17317593	      1.01020830	      1.23275412	     -0.32160501	      1.34357704	      1.30980125	     -0.28451073	      2.45622047	      1.30980125	     -0.19792277	      2.45622047	      1.07865986	     -0.16081117	      2.06001677	      1.00161272	     -0.09895272	      1.56481266	      0.92456559	     -1.23697832	     11.42767835	      6.85620859	      0.00000000	      0.00000000	      4.63066360	     -0.15102592	     11.38024937	      4.55846687	    -14.42881891	     38.04361807	     27.18537304	     81.53424733	    -10.00251991	      5.32046105	     58.14352478	     -4.39080256	     14.13718165	    141.38633559	     87.84355243	    -10.97859436	     11.79939435
      5.36666667	      7.96718825	     -1.00144098	     92.86202651	      0.14797037	      0.89817169	      0.41093757	      2.52544619	      1.62182115	    -23.74265810	     18.89402697	      0.32976298	     30.20954993	     18.92345975	      0.00000000	      3.21774805	     -6.58937128	     -7.41915284	     18.15208695	      0.31681368	     30.21212280	      6.40765169	      0.00000000	     -0.17539919	      1.02665708	      1.24020658	     -0.32573384	      1.36545391	      1.31771950	     -0.28816333	      2.49621401	      1.31771950	     -0.20046374	      2.49621401	      1.08518076	     -0.16287569	      2.09355911	      1.00766785	     -0.10022310	      1.59029181	      0.93015494	     -1.25285889	     11.61375016	      6.89765696	      0.00000000	      0.00000000	      4.62045587	     -0.34754343	     10.86013725	      4.82916077	    -14.58816100	     39.55413925	     26.87960681	     80.75611035	    -10.28385172	      4.97777666	     58.15023672	     -4.44614189	     14.39041402	    141.58352432	     87.90072079	    -11.52372710	     11.98059276
      5.38333333	      8.09312828	     -1.00741509	     92.77505474	      0.14808069	      0.89807099	      0.41095996	      2.49235435	      1.78087559	    -23.68936954	     18.77402633	      0.32766857	     30.15931237	     18.91823205	      0.00000000	      3.16301376	     -6.86283163	     -8.30178188	     18.14185887	      0.31663517	     30.05247839	      7.48771270	      0.00000000	     -0.17206303	      1.04750061	      1.25195876	     -0.31953824	      1.39317582	      1.33020619	     -0.28268234	      2.54689299	      1.33020619	     -0.19665083	      2.54689299	      1.09546392	     -0.15977773	      2.13606325	      1.01721650	     -0.09831681	      1.62257845	      0.93896907	     -1.22902898	     11.84953645	      6.96301906	      0.00000000	      0.00000000	      4.70684403	     -0.74240477	     10.13276972	      4.91465377	    -14.69765432	     39.97903067	     26.78980035	     80.50404641	    -10.31945702	      4.83919325	     58.17563118	     -4.50788630	     14.67249449	    141.79944896	     87.92140678	    -12.34223267	     12.74899743
      5.40000000	      8.08085102	     -1.04983758	     92.36875046	      0.14842900	      0.89799302	      0.41091048	      2.63156590	      1.72444935	    -23.40717890	     18.93830104	      0.33053571	     30.18227096	     18.95165998	      0.00000000	      2.95551258	     -6.84258044	     -8.83225397	     17.90598988	      0.31251848	     29.60776707	      7.47683685	      0.00000000	     -0.16605003	      1.05616413	      1.31045272	     -0.30837152	      1.40469829	      1.39235601	     -0.27280360	      2.56795747	      1.39235601	     -0.18977858	      2.56795747	      1.14664613	     -0.15419406	      2.15372990	      1.06474283	     -0.09488099	      1.63599824	      0.98283954	     -1.18607878	     11.94753988	      7.28834489	      0.00000000	      0.00000000	      4.68628301	     -1.16518059	      9.67456292	      5.12148295	    -14.88790437	     41.21013240	     26.64638520	     78.07083022	    -10.34679028	      4.08508290	     57.92435546	     -4.61543493	     14.76902865	    141.79696392	     87.93410889	    -12.78898018	     12.38026246
      5.41666667	      8.22141091	     -0.98996813	     92.94548730	      0.14787592	      0.89765462	      0.41102659	      2.42459180	      1.93400638	    -23.88787203	     18.65312120	      0.32555838	     30.17715001	     18.93258127	      0.00000000	      3.08871283	     -6.95615403	     -7.99275213	     18.13516727	      0.31651838	     29.18738185	      6.90749108	      0.00000000	     -0.16575974	      1.06922866	      1.24408989	     -0.30783241	      1.42207412	      1.32184551	     -0.27232668	      2.59972257	      1.32184551	     -0.18944681	      2.59972257	      1.08857866	     -0.15392449	      2.18037109	      1.01082304	     -0.09471512	      1.65623520	      0.93306742	     -1.18400524	     12.09532848	      6.91925475	      0.00000000	      0.00000000	      4.85608073	     -1.42052247	      8.39018040	      4.48344020	    -14.67546126	     37.03739110	     27.35763352	     81.42346454	     -9.53337784	      4.96137329	     57.91849796	     -4.40408958	     14.89842779	    141.83668279	     87.94776627	    -12.64919803	     13.87277313
      5.43333333	      8.23443811	     -0.94616579	     92.95296161	      0.14808328	      0.89750626	      0.41100969	      2.35461672	      1.99094965	    -23.84661084	     18.58693383	      0.32440319	     30.29905194	     18.93017246	      0.00000000	      2.99534392	     -7.08197895	     -8.68165691	     18.19932316	      0.31763811	     28.92296446	      7.55388187	      0.00000000	     -0.16786465	      1.06955986	      1.26064831	     -0.31174145	      1.42251461	      1.33943883	     -0.27578484	      2.60052784	      1.33943883	     -0.19185251	      2.60052784	      1.10306727	     -0.15587912	      2.18104647	      1.02427675	     -0.09591786	      1.65674822	      0.94548623	     -1.19904044	     12.09907505	      7.01134769	      0.00000000	      0.00000000	      4.66174728	     -1.61328226	      7.66584482	      4.24906029	    -14.59267223	     35.25629017	     27.81437888	     81.19383817	     -9.40201608	      4.77295557	     57.63849419	     -4.23457192	     14.91254164	    141.73136930	     87.98007771	    -12.48989171	     14.50114978
      5.45000000	      8.15438667	     -0.97277915	     92.77148663	      0.14869663	      0.89745357	      0.41113382	      2.38933398	      1.95031854	    -23.61065854	     18.54629608	      0.32369393	     30.31354293	     18.90286569	      0.00000000	      2.92406848	     -7.12038861	     -9.59948307	     18.19518166	      0.31756583	     28.73565815	      8.15785565	      0.00000000	     -0.16465917	      1.05196920	      1.29163334	     -0.30578854	      1.39911903	      1.37236042	     -0.27051855	      2.55775791	      1.37236042	     -0.18818896	      2.55775791	      1.13017917	     -0.15290250	      2.14517559	      1.04945208	     -0.09408625	      1.62950029	      0.96872500	     -1.17614396	     11.90008597	      7.18367712	      0.00000000	      0.00000000	      4.37202712	     -1.58905482	      7.06170021	      4.58825516	    -14.70130621	     36.46834483	     27.93618597	     78.35811105	    -10.25666825	      3.73305578	     57.33165340	     -4.19938045	     15.13852623	    141.63905578	     88.01699493	    -13.08778989	     15.36769543
      5.46666667	      7.98618975	     -1.00281281	     92.62000945	      0.14902161	      0.89753031	      0.41102384	      2.45338908	      1.76256400	    -23.53270112	     18.63787265	      0.32529224	     30.40647619	     18.94611988	      0.00000000	      2.81414278	     -6.92525071	     -9.83253150	     18.01601300	      0.31443874	     28.50806888	      7.88321957	      0.00000000	     -0.15308785	      1.03065036	      1.32846806	     -0.28429944	      1.37076499	      1.41149731	     -0.25150802	      2.50592330	      1.41149731	     -0.17496410	      2.50592330	      1.16240955	     -0.14215737	      2.10170222	      1.07938030	     -0.08747440	      1.59647741	      0.99635104	     -1.09349117	     11.65892306	      7.38854079	      0.00000000	      0.00000000	      3.82707450	     -1.81829028	      6.58815968	      4.52172085	    -14.71627796	     35.90032582	     28.44093514	     75.83730585	    -10.60449218	      2.95458860	     56.68207249	     -3.91176066	     14.98412429	    141.13152734	     88.01829391	    -12.68686679	     14.58885024
      5.48333333	      7.84104279	     -0.90548079	     92.78308824	      0.14916025	      0.89778386	      0.41133161	      2.30424221	      1.66992607	    -23.58012608	     18.49996633	      0.32288532	     30.32439160	     18.89031617	      0.00000000	      2.84174282	     -6.81966002	     -9.88193782	     18.14837094	      0.31674883	     28.49144747	      7.76642772	      0.00000000	     -0.17057107	      1.01080604	      1.25700041	     -0.31676754	      1.34437203	      1.33556293	     -0.28023122	      2.45767379	      1.33556293	     -0.19494568	      2.45767379	      1.09987535	     -0.15839230	      2.06123567	      1.02131283	     -0.09746431	      1.56573855	      0.94275030	     -1.21837212	     11.43444004	      6.99105915	      0.00000000	      0.00000000	      3.47558333	     -1.82776200	      6.38645725	      4.78448148	    -14.62050138	     35.09992041	     28.83203194	     75.59556741	    -10.72624525	      2.70635283	     56.15401767	     -3.87067440	     14.70838835	    140.86028692	     88.04541966	    -12.66745585	     14.80486206
      5.50000000	      7.70437448	     -0.91648535	     93.08683931	      0.14898034	      0.89787760	      0.41119207	      2.20480883	      1.55989678	    -23.88805512	     18.33334414	      0.31997722	     30.29672787	     18.91187184	      0.00000000	      2.95188851	     -6.55997565	     -8.86882998	     18.08318887	      0.31561119	     28.42732470	      6.64418451	      0.00000000	     -0.15676705	      0.99442672	      1.24675696	     -0.29113209	      1.32258753	      1.32467927	     -0.25755259	      2.41784912	      1.32467927	     -0.17916906	      2.41784912	      1.09091234	     -0.14557388	      2.02783496	      1.01299003	     -0.08957669	      1.54036698	      0.93506772	     -1.11977136	     11.24915389	      6.93408816	      0.00000000	      0.00000000	      3.18522882	     -2.25497694	      5.63603127	      3.68994787	    -13.97584057	     28.64776662	     29.92248449	     77.27577823	     -9.57332469	      3.10799220	     55.50807277	     -3.40278257	     14.17812776	    140.30054161	     88.13585864	    -10.98624011	     14.95001526
